<?xml version="1.0" encoding="utf-8"?>
<?xml-stylesheet type="text/xsl" href="rss1.xsl"?>
<rss version="2.0" xmlns:atom="http://www.w3.org/2005/Atom" xmlns:content="http://purl.org/rss/1.0/modules/content/" xmlns:dc="http://purl.org/dc/elements/1.1/" xmlns:media="http://search.yahoo.com/mrss/">
<channel>
 <title>Getty</title>
 <link>http://www.gettyimg.com/</link>
 <atom:link href="http://www.gettyimg.com/" rel="self" type="application/rss+xml" />

 
                <item>
                <title><![CDATA[【PRORES HD】Taylor Swift - Lavender Haze (Prores - 1080P)]]></title>
                <link><![CDATA[https://sharemania.us/threads/taylor-swift-lavender-haze-prores-1080p.237662/]]></link>
                <description><![CDATA[<article>
<blockquote class="messageText SelectQuoteContainer ugc baseHtml">
Enjoy, taken from Baidu. I always surprise myself when I succeed to download content over there. Mine Prores will follow tomorrow.<br>
<br>
<div class="ToggleTriggerAnchor bbCodeSpoilerContainer">
<button type="button" class="button bbCodeSpoilerButton ToggleTrigger Tooltip JsOnly" data-target="> .SpoilerTarget"><span>Spoiler: <span class="SpoilerTitle">Preview</span></span></button>
<div class="SpoilerTarget bbCodeSpoilerText"><a href="https://postimg.cc/3WQPDWNF" target="_blank" class="externalLink" rel="nofollow"><img src="https://i.postimg.cc/3WQPDWNF/Taylor-Swift-Lavender-Haze-2023-LPCM-Master-1080p-APCH-mov-thumbs-2024-02-13-12-02-47.jpg" class="bbCodeImage LbImage" alt="[​IMG]" data-url="https://i.postimg.cc/3WQPDWNF/Taylor-Swift-Lavender-Haze-2023-LPCM-Master-1080p-APCH-mov-thumbs-2024-02-13-12-02-47.jpg"></a></div>
</div><br>
<div class="ToggleTriggerAnchor bbCodeSpoilerContainer">
<button type="button" class="button bbCodeSpoilerButton ToggleTrigger Tooltip JsOnly" data-target="> .SpoilerTarget"><span>Spoiler: <span class="SpoilerTitle">Media Info</span></span></button>
<div class="SpoilerTarget bbCodeSpoilerText">
<div class="bbCodeBlock bbCodeCode">
<div class="type">Code:</div>
<pre>General
Complete name                  : Taylor Swift - Lavender Haze 2023 (LPCM-Master-1080p-APCH).mov
Format                         : MPEG-4
Format profile                 : QuickTime
Codec ID                       : qt   2005.03 (qt  )
File size                      : 4.40 GiB
Duration                       : 3 min 30 s
Overall bit rate mode          : Variable
Overall bit rate               : 180 Mb/s
Encoded date                   : UTC 2023-01-26 17:57:27
Tagged date                    : UTC 2023-01-26 17:57:27

Video
ID                             : 1
Format                         : ProRes
Format version                 : Version 0
Format profile                 : 422 HQ
Codec ID                       : apch
Duration                       : 3 min 30 s
Bit rate mode                  : Variable
Bit rate                       : 178 Mb/s
Width                          : 1 920 pixels
Height                         : 1 080 pixels
Display aspect ratio           : 16:9
Frame rate mode                : Constant
Frame rate                     : 23.976 (24000/1001) FPS
Color space                    : YUV
Chroma subsampling             : 4:2:2
Scan type                      : Progressive
Bits/(Pixel*Frame)             : 3.576
Stream size                    : 4.35 GiB (99%)
Writing library                : aut0
Language                       : English
Encoded date                   : UTC 2023-01-26 17:57:27
Tagged date                    : UTC 2023-01-26 17:57:27
Color primaries                : BT.709
Transfer characteristics       : BT.709
Matrix coefficients            : BT.709

Audio
ID                             : 3
Format                         : PCM
Format settings                : Little / Signed
Codec ID                       : lpcm
Duration                       : 3 min 30 s
Bit rate mode                  : Constant
Bit rate                       : 2 304 kb/s
Channel(s)                     : 2 channels
Channel layout                 : L R
Sampling rate                  : 48.0 kHz
Bit depth                      : 24 bits
Stream size                    : 57.7 MiB (1%)
Language                       : English
Encoded date                   : UTC 2023-01-26 17:57:27
Tagged date                    : UTC 2023-01-26 17:57:27

Other
ID                             : 2
Type                           : Time code
Format                         : QuickTime TC
Duration                       : 3 min 30 s
Frame rate                     : 23.976 (24000/1001) FPS
Time code of first frame       : 01:00:00:00
Time code, striped             : Yes
Title                          : untitled
Language                       : English
Encoded date                   : UTC 2023-01-26 17:57:27
Tagged date                    : UTC 2023-01-26 17:57:27
</pre>
</div></div>
</div><br>
<div class="bbCodeBlock bbCodeVfcHH HiddenContent">
<div class="attribution type">Hidden Content:</div>
<blockquote>You must reply before you can see the hidden data contained here.</blockquote>
</div>
<div class="messageTextEndMarker">&nbsp;</div>
</blockquote>
</article>]]></description>
                <author><![CDATA[wasper]]></author>
                </item>

                </channel></rss>